<?xml version="1.0" encoding="UTF-8" standalone="no"?>
<!-- Created with Inkscape (http://www.inkscape.org/) -->

<svg
   width="12.837006mm"
   height="9.1692905mm"
   viewBox="0 0 12.837006 9.1692905"
   version="1.1"
   id="svg1"
   inkscape:version="1.4 (86a8ad7, 2024-10-11)"
   sodipodi:docname="[A]-Invert.svg"
   inkscape:export-filename="Logo MakerSapceA-Medium.png"
   inkscape:export-xdpi="582.04773"
   inkscape:export-ydpi="582.04773"
   xmlns:inkscape="http://www.inkscape.org/namespaces/inkscape"
   xmlns:sodipodi="http://sodipodi.sourceforge.net/DTD/sodipodi-0.dtd"
   xmlns="http://www.w3.org/2000/svg"
   xmlns:svg="http://www.w3.org/2000/svg">
  <sodipodi:namedview
     id="namedview1"
     pagecolor="#ffffff"
     bordercolor="#000000"
     borderopacity="0.25"
     inkscape:showpageshadow="2"
     inkscape:pageopacity="0.0"
     inkscape:pagecheckerboard="0"
     inkscape:deskcolor="#d1d1d1"
     inkscape:document-units="mm"
     inkscape:zoom="3.8954759"
     inkscape:cx="10.52503"
     inkscape:cy="44.538846"
     inkscape:window-width="1920"
     inkscape:window-height="991"
     inkscape:window-x="2391"
     inkscape:window-y="-6"
     inkscape:window-maximized="1"
     inkscape:current-layer="layer1" />
  <defs
     id="defs1" />
  <g
     inkscape:label="Ebene 1"
     inkscape:groupmode="layer"
     id="layer1"
     transform="translate(-70.637498,-71.656311)">
    <path
       id="rect1"
       style="stroke-width:0.130998;fill:#ffffff"
       d="m 70.637498,71.656311 h 12.837006 v 9.169291 H 70.637498 Z"
       inkscape:export-filename="[A]-Large.png"
       inkscape:export-xdpi="3957.3091"
       inkscape:export-ydpi="3957.3091" />
    <path
       style="font-weight:bold;font-size:7.03012px;font-family:Nunito;-inkscape-font-specification:'Nunito Bold';fill:#000000;stroke-width:0.585842"
       d="m 73.069923,79.379901 c -0.103108,0 -0.192156,-0.03515 -0.267144,-0.105452 -0.0703,-0.0703 -0.105452,-0.157006 -0.105452,-0.260114 v -5.490524 c 0,-0.107795 0.03515,-0.1945 0.105452,-0.260114 0.07499,-0.0703 0.164036,-0.105452 0.267144,-0.105452 h 1.005308 c 0.107795,0 0.189813,0.03281 0.246054,0.09842 0.06093,0.06093 0.09139,0.138258 0.09139,0.231994 0,0.09374 -0.03046,0.173409 -0.09139,0.239024 -0.05624,0.06093 -0.138258,0.09139 -0.246054,0.09139 h -0.499139 v 4.899994 h 0.499139 c 0.107795,0 0.189813,0.03046 0.246054,0.09139 0.06093,0.06561 0.09139,0.145288 0.09139,0.239024 0,0.09374 -0.03046,0.171067 -0.09139,0.231994 -0.05624,0.06561 -0.138258,0.09842 -0.246054,0.09842 z m 1.961408,-1.209181 c -0.112482,0 -0.203874,-0.02578 -0.274175,-0.07733 -0.06561,-0.05155 -0.105451,-0.119511 -0.119512,-0.203873 -0.01406,-0.08905 0.0023,-0.18747 0.04921,-0.295265 l 1.855952,-4.112621 c 0.06093,-0.135915 0.133571,-0.231994 0.217933,-0.288235 0.08905,-0.06093 0.189814,-0.09139 0.302296,-0.09139 0.107795,0 0.203873,0.03046 0.288235,0.09139 0.08905,0.05624 0.164036,0.152318 0.224963,0.288235 l 1.862982,4.112621 c 0.05155,0.107795 0.0703,0.206216 0.05624,0.295265 -0.01406,0.08905 -0.0539,0.159349 -0.119512,0.210903 -0.06561,0.04687 -0.152318,0.0703 -0.260114,0.0703 -0.131229,0 -0.234338,-0.03046 -0.309326,-0.09139 -0.0703,-0.06561 -0.133572,-0.164035 -0.189813,-0.295265 l -0.456958,-1.061548 0.379627,0.246054 H 75.57265 l 0.379627,-0.246054 -0.449928,1.061548 c -0.06093,0.135915 -0.124198,0.234337 -0.189813,0.295265 -0.06561,0.06093 -0.159348,0.09139 -0.281205,0.09139 z m 2.017644,-4.035288 -0.984216,2.341029 -0.182784,-0.224963 h 2.34806 l -0.175752,0.224963 -0.991247,-2.341029 z m 2.987796,5.244469 c -0.103109,0 -0.185127,-0.03281 -0.246054,-0.09842 -0.06093,-0.06093 -0.09139,-0.138258 -0.09139,-0.231994 0,-0.09373 0.03046,-0.173409 0.09139,-0.239024 0.06093,-0.06093 0.142945,-0.09139 0.246054,-0.09139 h 0.499139 v -4.899994 h -0.499139 c -0.103109,0 -0.185127,-0.03046 -0.246054,-0.09139 -0.06093,-0.06561 -0.09139,-0.145288 -0.09139,-0.239024 0,-0.09373 0.03046,-0.171067 0.09139,-0.231994 0.06093,-0.06561 0.142945,-0.09842 0.246054,-0.09842 h 1.005307 c 0.107795,0 0.196844,0.03515 0.267145,0.105452 0.0703,0.06561 0.105452,0.152318 0.105452,0.260114 v 5.490524 c 0,0.103108 -0.03515,0.189813 -0.105452,0.260114 -0.0703,0.0703 -0.15935,0.105452 -0.267145,0.105452 z"
       id="text1"
       aria-label="MakerSpace[A]"
       sodipodi:nodetypes="scsscsscscsccscscssscccccscccscscccccccsscccccccscscsccscscsscsssss" />
  </g>
</svg>
