<?xml version="1.0" encoding="UTF-8" standalone="no"?>
<!-- Created with Inkscape (http://www.inkscape.org/) -->

<svg
   width="52.366837mm"
   height="9.1692905mm"
   viewBox="0 0 52.366837 9.1692905"
   version="1.1"
   id="svg1"
   inkscape:version="1.4 (86a8ad7, 2024-10-11)"
   sodipodi:docname="MakerSpace.svg"
   inkscape:export-filename="Logo MakerSapceA-Medium.png"
   inkscape:export-xdpi="582.04773"
   inkscape:export-ydpi="582.04773"
   xmlns:inkscape="http://www.inkscape.org/namespaces/inkscape"
   xmlns:sodipodi="http://sodipodi.sourceforge.net/DTD/sodipodi-0.dtd"
   xmlns="http://www.w3.org/2000/svg"
   xmlns:svg="http://www.w3.org/2000/svg">
  <sodipodi:namedview
     id="namedview1"
     pagecolor="#ffffff"
     bordercolor="#000000"
     borderopacity="0.25"
     inkscape:showpageshadow="2"
     inkscape:pageopacity="0.0"
     inkscape:pagecheckerboard="0"
     inkscape:deskcolor="#d1d1d1"
     inkscape:document-units="mm"
     inkscape:zoom="3.8954759"
     inkscape:cx="76.242289"
     inkscape:cy="44.538846"
     inkscape:window-width="1920"
     inkscape:window-height="991"
     inkscape:window-x="2391"
     inkscape:window-y="-6"
     inkscape:window-maximized="1"
     inkscape:current-layer="layer1" />
  <defs
     id="defs1" />
  <g
     inkscape:label="Ebene 1"
     inkscape:groupmode="layer"
     id="layer1"
     transform="translate(-31.107668,-71.656311)">
    <path
       id="rect1"
       style="stroke-width:0.264583"
       d="m 31.107668,71.656311 h 52.366836 v 9.169291 H 31.107668 Z" />
    <path
       style="font-weight:bold;font-size:7.03012px;font-family:Nunito;-inkscape-font-specification:'Nunito Bold';fill:#ffffff;stroke-width:0.585842"
       d="m 33.360553,78.149632 q -0.196843,0 -0.302295,-0.112482 -0.105452,-0.112481 -0.105452,-0.309325 v -4.225102 q 0,-0.203873 0.112482,-0.309325 0.112482,-0.112482 0.309325,-0.112482 0.175753,0 0.274175,0.0703 0.105452,0.06327 0.189813,0.224964 l 1.73644,3.212765 h -0.224964 l 1.73644,-3.212765 q 0.08436,-0.161693 0.182783,-0.224964 0.09842,-0.0703 0.274174,-0.0703 0.196844,0 0.302296,0.112482 0.105451,0.105452 0.105451,0.309325 v 4.225102 q 0,0.196844 -0.105451,0.309325 -0.09842,0.112482 -0.302296,0.112482 -0.196843,0 -0.302295,-0.112482 -0.105452,-0.112481 -0.105452,-0.309325 V 74.47288 h 0.154663 l -1.476325,2.692536 q -0.0703,0.119512 -0.147633,0.175753 -0.07733,0.05624 -0.210903,0.05624 -0.133573,0 -0.217934,-0.05624 -0.08436,-0.06327 -0.147632,-0.175753 L 33.599577,74.46585 H 33.7683 v 3.261975 q 0,0.196844 -0.105452,0.309325 -0.09842,0.112482 -0.302295,0.112482 z m 6.727825,0.01406 q -0.372596,0 -0.667861,-0.140603 -0.288235,-0.147632 -0.456958,-0.393686 -0.161693,-0.246055 -0.161693,-0.55538 0,-0.379626 0.196843,-0.59756 0.196844,-0.224964 0.639741,-0.323386 0.442898,-0.09842 1.188091,-0.09842 h 0.351506 v 0.506168 h -0.344476 q -0.435868,0 -0.695982,0.04218 -0.260115,0.04218 -0.372597,0.147633 -0.105451,0.09842 -0.105451,0.281204 0,0.231994 0.161692,0.379627 0.161693,0.147632 0.449928,0.147632 0.231994,0 0.407747,-0.105451 0.182783,-0.112482 0.288235,-0.302296 0.105452,-0.189813 0.105452,-0.435867 v -0.808464 q 0,-0.351506 -0.154663,-0.506169 -0.154663,-0.154662 -0.520229,-0.154662 -0.203873,0 -0.442897,0.04921 -0.231994,0.04921 -0.492109,0.168723 -0.133572,0.06327 -0.239024,0.03515 -0.09842,-0.02812 -0.154662,-0.112482 -0.05624,-0.09139 -0.05624,-0.196843 0,-0.105452 0.05624,-0.203874 0.05624,-0.105451 0.189813,-0.154662 0.323385,-0.133572 0.61865,-0.189813 0.302296,-0.05624 0.54835,-0.05624 0.506168,0 0.829554,0.154662 0.330415,0.154663 0.492108,0.471018 0.161693,0.309326 0.161693,0.801434 v 1.687229 q 0,0.217933 -0.105452,0.337445 -0.105452,0.112482 -0.302295,0.112482 -0.196843,0 -0.309325,-0.112482 -0.105452,-0.119512 -0.105452,-0.337445 v -0.337446 h 0.05624 q -0.04921,0.246054 -0.196843,0.428837 -0.140603,0.175753 -0.358537,0.274175 -0.217933,0.09842 -0.499138,0.09842 z m 3.1495,-0.01406 q -0.210904,0 -0.323386,-0.112482 -0.112481,-0.119512 -0.112481,-0.337445 v -4.175892 q 0,-0.217933 0.112481,-0.330415 0.112482,-0.112482 0.323386,-0.112482 0.210904,0 0.323385,0.112482 0.119512,0.112482 0.119512,0.330415 v 2.594115 h 0.01406 l 1.15997,-1.223241 q 0.140602,-0.140603 0.246054,-0.217934 0.105452,-0.07733 0.288235,-0.07733 0.182783,0 0.274174,0.09842 0.09842,0.09139 0.09842,0.224963 0,0.133573 -0.126542,0.267145 l -1.223241,1.293542 v -0.365566 l 1.342753,1.448204 q 0.126542,0.133573 0.112482,0.274175 -0.007,0.133572 -0.112482,0.224964 -0.105452,0.08436 -0.267145,0.08436 -0.196843,0 -0.316355,-0.07733 -0.112482,-0.07733 -0.253084,-0.231994 l -1.223241,-1.279482 h -0.01406 v 1.13888 q 0,0.449927 -0.442897,0.449927 z m 4.956228,0.01406 q -0.5835,0 -1.005307,-0.217934 -0.421807,-0.217934 -0.653801,-0.618651 -0.224964,-0.400716 -0.224964,-0.949066 0,-0.534289 0.217934,-0.935006 0.224964,-0.400717 0.61162,-0.62568 0.393687,-0.231994 0.892826,-0.231994 0.365566,0 0.653801,0.119512 0.295265,0.119512 0.499138,0.344476 0.210904,0.224963 0.316356,0.548349 0.112482,0.316355 0.112482,0.717072 0,0.126542 -0.09139,0.196843 -0.08436,0.06327 -0.246054,0.06327 h -2.256669 v -0.506169 h 1.975464 l -0.112482,0.105452 q 0,-0.323386 -0.09842,-0.54132 -0.09139,-0.217933 -0.274174,-0.330415 -0.175753,-0.119512 -0.442898,-0.119512 -0.295265,0 -0.506169,0.140602 -0.203873,0.133572 -0.316355,0.386657 -0.105452,0.246054 -0.105452,0.59053 v 0.04921 q 0,0.57647 0.267145,0.864704 0.274175,0.281205 0.801434,0.281205 0.182783,0 0.407746,-0.04218 0.231994,-0.04921 0.435868,-0.161693 0.147632,-0.08436 0.260114,-0.0703 0.112482,0.007 0.175753,0.07733 0.0703,0.0703 0.08436,0.175753 0.01406,0.09842 -0.04218,0.203873 -0.04921,0.105452 -0.175753,0.182783 -0.246054,0.154663 -0.56944,0.231994 -0.316355,0.0703 -0.59053,0.0703 z m 2.565992,-0.01406 q -0.217934,0 -0.337446,-0.112482 -0.112482,-0.119512 -0.112482,-0.337445 v -2.657386 q 0,-0.217933 0.112482,-0.330415 0.112482,-0.112482 0.316355,-0.112482 0.203874,0 0.316356,0.112482 0.112482,0.112482 0.112482,0.330415 v 0.442898 h -0.0703 q 0.09842,-0.421807 0.386656,-0.639741 0.288235,-0.217934 0.766283,-0.260114 0.147633,-0.01406 0.231994,0.07733 0.09139,0.08436 0.105452,0.267144 0.01406,0.175753 -0.08436,0.288235 -0.09139,0.105452 -0.281205,0.126543 l -0.154663,0.01406 q -0.428837,0.04218 -0.646771,0.267144 -0.217934,0.217934 -0.217934,0.618651 v 1.455235 q 0,0.217933 -0.112482,0.337445 -0.112481,0.112482 -0.330415,0.112482 z m 4.098563,0.01406 q -0.309326,0 -0.618651,-0.04921 -0.309325,-0.04218 -0.5835,-0.133572 -0.274175,-0.09842 -0.492108,-0.239025 -0.126543,-0.08436 -0.175753,-0.203873 -0.04921,-0.119512 -0.03515,-0.231994 0.02109,-0.119512 0.09139,-0.203873 0.07733,-0.09139 0.189813,-0.112482 0.112482,-0.02109 0.246054,0.06327 0.309325,0.182783 0.653801,0.267144 0.344476,0.08436 0.724103,0.08436 0.555379,0 0.808463,-0.182783 0.253085,-0.189814 0.253085,-0.485079 0,-0.246054 -0.182784,-0.386656 -0.175753,-0.140603 -0.61162,-0.231994 l -0.773313,-0.161693 q -0.667862,-0.140602 -0.998277,-0.471018 -0.323386,-0.337446 -0.323386,-0.885795 0,-0.344476 0.140603,-0.625681 0.140602,-0.281205 0.393686,-0.485078 0.260115,-0.203874 0.611621,-0.309325 0.358536,-0.112482 0.787373,-0.112482 0.421807,0 0.801434,0.105451 0.379626,0.105452 0.681922,0.309326 0.112482,0.07733 0.147632,0.189813 0.04218,0.112482 0.02109,0.224964 -0.02109,0.105452 -0.09842,0.182783 -0.07733,0.07733 -0.196844,0.09139 -0.112481,0.01406 -0.260114,-0.0703 -0.260114,-0.147632 -0.527259,-0.210903 -0.267145,-0.06327 -0.57647,-0.06327 -0.323385,0 -0.555379,0.09139 -0.231994,0.09139 -0.358536,0.260115 -0.119512,0.161692 -0.119512,0.386656 0,0.253085 0.168722,0.407747 0.168723,0.147633 0.57647,0.231994 l 0.766283,0.161693 q 0.695982,0.147632 1.033428,0.463988 0.344476,0.316355 0.344476,0.843614 0,0.337446 -0.140603,0.611621 -0.133572,0.274174 -0.393686,0.471018 -0.253085,0.196843 -0.611621,0.302295 -0.358536,0.105452 -0.808463,0.105452 z m 3.079195,1.251361 q -0.210904,0 -0.323386,-0.112482 -0.112482,-0.112482 -0.112482,-0.330416 v -3.929837 q 0,-0.217933 0.112482,-0.330415 0.112482,-0.112482 0.316356,-0.112482 0.210903,0 0.323385,0.112482 0.112482,0.112482 0.112482,0.330415 v 0.54835 l -0.07733,-0.210904 q 0.105452,-0.358536 0.428837,-0.57647 0.330416,-0.217933 0.766283,-0.217933 0.449928,0 0.787374,0.217933 0.344476,0.217934 0.534289,0.618651 0.189813,0.393687 0.189813,0.949066 0,0.548349 -0.189813,0.956096 -0.189813,0.400717 -0.527259,0.618651 -0.337446,0.217934 -0.794404,0.217934 -0.428837,0 -0.752223,-0.210904 -0.323385,-0.217934 -0.435867,-0.56241 h 0.08436 v 1.581777 q 0,0.217934 -0.119512,0.330416 -0.112482,0.112482 -0.323385,0.112482 z m 1.300572,-1.919223 q 0.260114,0 0.456958,-0.126542 0.196843,-0.126542 0.302295,-0.372596 0.112482,-0.253085 0.112482,-0.625681 0,-0.56241 -0.239024,-0.836584 -0.239024,-0.281205 -0.632711,-0.281205 -0.260114,0 -0.456958,0.126542 -0.196843,0.119512 -0.309325,0.372596 -0.105452,0.246055 -0.105452,0.618651 0,0.55538 0.239024,0.843614 0.239024,0.281205 0.632711,0.281205 z m 3.613484,0.667862 q -0.372596,0 -0.667861,-0.140603 -0.288235,-0.147632 -0.456958,-0.393686 -0.161692,-0.246055 -0.161692,-0.55538 0,-0.379626 0.196843,-0.59756 0.196843,-0.224964 0.639741,-0.323386 0.442897,-0.09842 1.18809,-0.09842 h 0.351506 v 0.506168 h -0.344476 q -0.435867,0 -0.695982,0.04218 -0.260114,0.04218 -0.372596,0.147633 -0.105452,0.09842 -0.105452,0.281204 0,0.231994 0.161693,0.379627 0.161693,0.147632 0.449928,0.147632 0.231994,0 0.407747,-0.105451 0.182783,-0.112482 0.288234,-0.302296 0.105452,-0.189813 0.105452,-0.435867 v -0.808464 q 0,-0.351506 -0.154662,-0.506169 -0.154663,-0.154662 -0.520229,-0.154662 -0.203874,0 -0.442898,0.04921 -0.231994,0.04921 -0.492108,0.168723 -0.133572,0.06327 -0.239024,0.03515 -0.09842,-0.02812 -0.154663,-0.112482 -0.05624,-0.09139 -0.05624,-0.196843 0,-0.105452 0.05624,-0.203874 0.05624,-0.105451 0.189813,-0.154662 0.323386,-0.133572 0.618651,-0.189813 0.302295,-0.05624 0.548349,-0.05624 0.506169,0 0.829554,0.154662 0.330416,0.154663 0.492109,0.471018 0.161693,0.309326 0.161693,0.801434 v 1.687229 q 0,0.217933 -0.105452,0.337445 -0.105452,0.112482 -0.302295,0.112482 -0.196844,0 -0.309326,-0.112482 -0.105451,-0.119512 -0.105451,-0.337445 v -0.337446 h 0.05624 q -0.04921,0.246054 -0.196843,0.428837 -0.140602,0.175753 -0.358536,0.274175 -0.217934,0.09842 -0.499139,0.09842 z m 4.302442,0 q -0.541319,0 -0.942036,-0.217934 -0.400717,-0.224964 -0.618651,-0.632711 -0.217933,-0.407747 -0.217933,-0.956096 0,-0.414777 0.119512,-0.738163 0.126542,-0.330415 0.358536,-0.555379 0.231994,-0.231994 0.562409,-0.351506 0.330416,-0.126542 0.738163,-0.126542 0.231994,0 0.499139,0.06327 0.274174,0.06327 0.513198,0.210903 0.112482,0.0703 0.147633,0.168723 0.03515,0.09842 0.01406,0.203874 -0.02109,0.09842 -0.09139,0.175753 -0.06327,0.0703 -0.161693,0.09139 -0.09842,0.01406 -0.217934,-0.04921 -0.154663,-0.09139 -0.316355,-0.133572 -0.161693,-0.04921 -0.309326,-0.04921 -0.231994,0 -0.407747,0.07733 -0.175753,0.0703 -0.302295,0.210903 -0.119512,0.133572 -0.182783,0.337446 -0.06327,0.203873 -0.06327,0.471018 0,0.520229 0.246054,0.822524 0.253085,0.295265 0.710042,0.295265 0.147633,0 0.302296,-0.04218 0.161692,-0.04218 0.323385,-0.133572 0.119512,-0.06327 0.210904,-0.04218 0.09842,0.02109 0.161692,0.09842 0.06327,0.0703 0.07733,0.175753 0.01406,0.09842 -0.02812,0.196843 -0.03515,0.09842 -0.140602,0.161693 -0.231994,0.140602 -0.492109,0.203874 -0.260114,0.06327 -0.492108,0.06327 z m 3.353365,0 q -0.5835,0 -1.005307,-0.217934 -0.421807,-0.217934 -0.653801,-0.618651 -0.224964,-0.400716 -0.224964,-0.949066 0,-0.534289 0.217934,-0.935006 0.224964,-0.400717 0.61162,-0.62568 0.393687,-0.231994 0.892825,-0.231994 0.365567,0 0.653802,0.119512 0.295265,0.119512 0.499138,0.344476 0.210904,0.224963 0.316356,0.548349 0.112481,0.316355 0.112481,0.717072 0,0.126542 -0.09139,0.196843 -0.08436,0.06327 -0.246054,0.06327 h -2.256669 v -0.506169 h 1.975464 l -0.112482,0.105452 q 0,-0.323386 -0.09842,-0.54132 -0.09139,-0.217933 -0.274174,-0.330415 -0.175753,-0.119512 -0.442898,-0.119512 -0.295265,0 -0.506169,0.140602 -0.203873,0.133572 -0.316355,0.386657 -0.105452,0.246054 -0.105452,0.59053 v 0.04921 q 0,0.57647 0.267145,0.864704 0.274174,0.281205 0.801433,0.281205 0.182784,0 0.407747,-0.04218 0.231994,-0.04921 0.435868,-0.161693 0.147632,-0.08436 0.260114,-0.0703 0.112482,0.007 0.175753,0.07733 0.0703,0.0703 0.08436,0.175753 0.01406,0.09842 -0.04218,0.203873 -0.04921,0.105452 -0.175753,0.182783 -0.246054,0.154663 -0.56944,0.231994 -0.316355,0.0703 -0.59053,0.0703 z m 2.776894,1.19512 q -0.154662,0 -0.267144,-0.105452 -0.105452,-0.105452 -0.105452,-0.260114 v -5.490524 q 0,-0.161693 0.105452,-0.260114 0.112482,-0.105452 0.267144,-0.105452 h 1.005308 q 0.161692,0 0.246054,0.09842 0.09139,0.09139 0.09139,0.231994 0,0.140602 -0.09139,0.239024 -0.08436,0.09139 -0.246054,0.09139 h -0.499139 v 4.899994 h 0.499139 q 0.161692,0 0.246054,0.09139 0.09139,0.09842 0.09139,0.239024 0,0.140603 -0.09139,0.231994 -0.08436,0.09842 -0.246054,0.09842 z m 1.961408,-1.209181 q -0.168723,0 -0.274175,-0.07733 -0.09842,-0.07733 -0.119512,-0.203873 -0.02109,-0.133573 0.04921,-0.295265 l 1.855952,-4.112621 q 0.09139,-0.203873 0.217933,-0.288235 0.133573,-0.09139 0.302296,-0.09139 0.161692,0 0.288235,0.09139 0.133572,0.08436 0.224963,0.288235 l 1.862982,4.112621 q 0.07733,0.161692 0.05624,0.295265 -0.02109,0.133572 -0.119512,0.210903 -0.09842,0.0703 -0.260114,0.0703 -0.196844,0 -0.309326,-0.09139 -0.105451,-0.09842 -0.189813,-0.295265 l -0.456958,-1.061548 0.379627,0.246054 H 75.78734 l 0.379627,-0.246054 -0.449928,1.061548 q -0.09139,0.203873 -0.189813,0.295265 -0.09842,0.09139 -0.281205,0.09139 z m 2.017644,-4.035288 -0.984216,2.341029 -0.182784,-0.224963 h 2.34806 l -0.175752,0.224963 -0.991247,-2.341029 z m 2.987796,5.244469 q -0.154663,0 -0.246054,-0.09842 -0.09139,-0.09139 -0.09139,-0.231994 0,-0.140602 0.09139,-0.239024 0.09139,-0.09139 0.246054,-0.09139 H 80.7506 v -4.899994 h -0.499139 q -0.154663,0 -0.246054,-0.09139 -0.09139,-0.09842 -0.09139,-0.239024 0,-0.140603 0.09139,-0.231994 0.09139,-0.09842 0.246054,-0.09842 h 1.005307 q 0.161693,0 0.267145,0.105452 0.105452,0.09842 0.105452,0.260114 v 5.490524 q 0,0.154662 -0.105452,0.260114 -0.105452,0.105452 -0.267145,0.105452 z"
       id="text1"
       aria-label="MakerSpace[A]" />
  </g>
</svg>
